<svg width="55" height="55" viewBox="0 0 55 55" fill="none" xmlns="http://www.w3.org/2000/svg">
<path d="M4.72138 0.0669107C3.23821 -0.319198 1.88172 1.02707 2.24198 2.52764L4.05442 10.0768L20.8937 26.5827L14.6082 33.5308L14.3196 33.2289C13.2803 32.1416 11.5536 32.1396 10.5118 33.2244C9.51864 34.2586 9.51864 35.9005 10.5118 36.9347L11.0428 37.4875L4.50265 44.7115L4.01942 44.2125C3.62018 43.8003 2.96202 43.8017 2.56452 44.2156L0.285509 46.5888C-0.0951695 46.9852 -0.0951697 47.6145 0.285509 48.0109L6.69741 54.6876C7.09608 55.1027 7.75661 55.1027 8.15529 54.6876L10.4312 52.3176C10.8119 51.9212 10.8119 51.2919 10.4312 50.8955L9.90181 50.3443L16.8494 43.5446L17.2555 43.9656C18.2988 45.0473 20.0229 45.0454 21.0639 43.9614C22.0594 42.9248 22.0594 41.2791 21.0639 40.2425L20.6594 39.8213L27.5255 33.0747L34.3712 39.7894L33.9341 40.2446C32.9397 41.2801 32.9397 42.9238 33.9341 43.9593C34.9754 45.0437 36.7008 45.0437 37.7422 43.9593L38.171 43.5128L45.1186 50.3124L44.5595 50.8946C44.1785 51.2914 44.1789 51.9214 44.5605 52.3177L46.8447 54.6897C47.2435 55.1038 47.9033 55.1034 48.3016 54.6886L54.7145 48.0109C55.0952 47.6145 55.0952 46.9852 54.7145 46.5888L52.4385 44.2188C52.0399 43.8037 51.3793 43.8037 50.9807 44.2188L50.5279 44.6903L43.9878 37.4557L44.486 36.9369C45.4804 35.9014 45.4804 34.2577 44.486 33.2222C43.4447 32.1378 41.7193 32.1378 40.6779 33.2222L40.4121 33.499L34.1573 26.5827L34.1674 26.5721L27.5255 19.242L11.8781 1.92999L4.72138 0.0669107ZM52.8089 2.52764C53.1692 1.02707 51.8127 -0.319198 50.3295 0.0669113L43.1728 1.92999L30.5307 15.9112L37.5597 23.2412L50.9965 10.0768L52.8089 2.52764Z" fill="#4D5FD5"/>
</svg>
