<svg width="351" height="55" viewBox="0 0 351 55" fill="none" xmlns="http://www.w3.org/2000/svg">
<path d="M4.72138 0.0669107C3.23821 -0.319198 1.88172 1.02707 2.24198 2.52764L4.05442 10.0768L20.8937 26.5827L14.6082 33.5308L14.3196 33.2289C13.2803 32.1416 11.5536 32.1396 10.5118 33.2244C9.51864 34.2586 9.51864 35.9005 10.5118 36.9347L11.0428 37.4875L4.50265 44.7115L4.01942 44.2125C3.62018 43.8003 2.96202 43.8017 2.56452 44.2156L0.285509 46.5888C-0.0951695 46.9852 -0.0951697 47.6145 0.285509 48.0109L6.69741 54.6876C7.09608 55.1027 7.75661 55.1027 8.15529 54.6876L10.4312 52.3176C10.8119 51.9212 10.8119 51.2919 10.4312 50.8955L9.90181 50.3443L16.8494 43.5446L17.2555 43.9656C18.2988 45.0473 20.0229 45.0454 21.0639 43.9614C22.0594 42.9248 22.0594 41.2791 21.0639 40.2425L20.6594 39.8213L27.5255 33.0747L34.3712 39.7894L33.9341 40.2446C32.9397 41.2801 32.9397 42.9238 33.9341 43.9593C34.9754 45.0437 36.7008 45.0437 37.7422 43.9593L38.171 43.5128L45.1186 50.3124L44.5595 50.8946C44.1785 51.2914 44.1789 51.9214 44.5605 52.3177L46.8447 54.6897C47.2435 55.1038 47.9033 55.1034 48.3016 54.6886L54.7145 48.0109C55.0952 47.6145 55.0952 46.9852 54.7145 46.5888L52.4385 44.2188C52.0399 43.8037 51.3793 43.8037 50.9807 44.2188L50.5279 44.6903L43.9878 37.4557L44.486 36.9369C45.4804 35.9014 45.4804 34.2577 44.486 33.2222C43.4447 32.1378 41.7193 32.1378 40.6779 33.2222L40.4121 33.499L34.1573 26.5827L34.1674 26.5721L27.5255 19.242L11.8781 1.92999L4.72138 0.0669107ZM52.8089 2.52764C53.1692 1.02707 51.8127 -0.319198 50.3295 0.0669113L43.1728 1.92999L30.5307 15.9112L37.5597 23.2412L50.9965 10.0768L52.8089 2.52764Z" fill="#4D5FD5"/>
<path d="M81.2507 44.6409H85.0911C86.8036 44.6409 87.4783 44.1806 88.2048 42.9021C90.2807 38.6061 92.616 30.5767 93.9653 22.4451H94.121C95.4703 30.5767 97.8057 38.6061 99.8815 42.9021C100.556 44.1806 101.335 44.6409 102.995 44.6409H106.784C108.496 44.6409 109.223 44.1295 109.794 42.9021C112.959 36.6627 117.422 15.6942 117.422 8.78999C117.422 7.56257 116.696 7 115.347 7H111.351C109.586 7 108.86 7.56257 108.756 8.94342C107.77 18.6605 106.317 26.5876 104.552 34.8215H104.345C102.217 27.099 100.193 18.4048 98.7398 8.94342C98.5841 7.51143 97.8576 7 96.0412 7H92.3566C90.5402 7 89.8655 7.51143 89.6579 8.94342C88.2048 18.4048 86.1809 27.099 84.0531 34.8215H83.8456C82.0811 26.5876 80.628 18.6605 79.6939 8.94342C79.5382 7.56257 78.8116 7 77.0471 7H72.6879C71.2867 7 70.612 7.56257 70.612 8.78999C70.612 15.6942 75.0232 36.6627 78.1889 42.9021C78.8116 44.1295 79.5901 44.6409 81.2507 44.6409Z" fill="#4D5FD5"/>
<path d="M128.549 45.2035C132.39 45.2035 135.555 44.0783 137.787 41.8792V42.4929C137.787 43.9761 138.41 44.6409 139.863 44.6409H143.236C144.741 44.6409 145.312 44.0272 145.312 42.5441V27.457C145.312 19.7345 141.056 15.6431 132.805 15.6431C129.276 15.6431 125.02 16.4614 122.581 17.4842C121.232 18.0979 120.869 18.9162 121.232 20.2459L121.907 22.803C122.27 24.235 122.996 24.593 124.553 24.0305C126.992 23.161 128.913 22.7008 131.196 22.7008C135.036 22.7008 136.801 24.2862 136.801 27.6616V27.9684C124.605 28.0196 119.467 30.8836 119.467 37.0207C119.467 42.0838 122.893 45.2035 128.549 45.2035ZM131.196 39.4244C128.757 39.4244 127.563 38.4527 127.563 36.6627C127.563 34.2078 129.795 33.185 136.801 33.0827V37.5321C135.452 38.7595 133.012 39.4244 131.196 39.4244Z" fill="#4D5FD5"/>
<path d="M153.56 44.6409H157.868C159.373 44.6409 159.943 44.0272 159.943 42.5441V24.0816C161.812 24.3373 164.666 24.6442 167.105 24.6442C168.558 24.6442 169.233 24.0305 169.233 22.5473V17.8422C169.233 16.3591 168.61 15.7454 167.053 15.7454C164.562 15.7454 160.722 17.6888 159.009 19.7856V18.3025C159.009 16.8194 158.386 16.2568 156.933 16.2568H153.56C152.107 16.2568 151.484 16.8705 151.484 18.3025V42.5441C151.484 44.0272 152.107 44.6409 153.56 44.6409Z" fill="#4D5FD5"/>
<path d="M182.053 44.6409H185.894C187.606 44.6409 188.281 44.1806 189.007 42.9021C191.083 38.6061 193.419 30.5767 194.768 22.4451H194.924C196.273 30.5767 198.608 38.6061 200.684 42.9021C201.359 44.1806 202.137 44.6409 203.798 44.6409H207.586C209.299 44.6409 210.025 44.1295 210.596 42.9021C213.762 36.6627 218.225 15.6942 218.225 8.78999C218.225 7.56257 217.498 7 216.149 7H212.153C210.389 7 209.662 7.56257 209.558 8.94342C208.572 18.6605 207.119 26.5876 205.355 34.8215H205.147C203.019 27.099 200.995 18.4048 199.542 8.94342C199.387 7.51143 198.66 7 196.844 7H193.159C191.343 7 190.668 7.51143 190.46 8.94342C189.007 18.4048 186.983 27.099 184.856 34.8215H184.648C182.884 26.5876 181.43 18.6605 180.496 8.94342C180.341 7.56257 179.614 7 177.85 7H173.49C172.089 7 171.414 7.56257 171.414 8.78999C171.414 15.6942 175.826 36.6627 178.991 42.9021C179.614 44.1295 180.393 44.6409 182.053 44.6409Z" fill="#4D5FD5"/>
<path d="M234.55 45.2035C243.995 45.2035 248.666 40.3449 248.666 30.4233C248.666 20.5528 243.995 15.6431 234.55 15.6431C225.157 15.6431 220.486 20.5528 220.486 30.4233C220.486 40.3449 225.157 45.2035 234.55 45.2035ZM234.55 38.1458C230.71 38.1458 229.101 35.8955 229.101 30.4233C229.101 24.951 230.71 22.7008 234.55 22.7008C238.442 22.7008 239.999 24.951 239.999 30.4233C239.999 35.8955 238.442 38.1458 234.55 38.1458Z" fill="#4D5FD5"/>
<path d="M256.136 44.6409H260.444C261.949 44.6409 262.52 44.0272 262.52 42.5441V24.0816C264.388 24.3373 267.242 24.6442 269.681 24.6442C271.134 24.6442 271.809 24.0305 271.809 22.5473V17.8422C271.809 16.3591 271.186 15.7454 269.629 15.7454C267.138 15.7454 263.298 17.6888 261.586 19.7856V18.3025C261.586 16.8194 260.963 16.2568 259.51 16.2568H256.136C254.683 16.2568 254.061 16.8705 254.061 18.3025V42.5441C254.061 44.0272 254.683 44.6409 256.136 44.6409Z" fill="#4D5FD5"/>
<path d="M285.78 45.2035C289.205 45.2035 292.267 43.9249 293.876 42.1861V42.5441C293.876 44.0272 294.446 44.6409 295.951 44.6409H299.273C300.778 44.6409 301.349 44.0272 301.349 42.5441V9.09684C301.349 7.61371 300.778 7 299.273 7H294.965C293.512 7 292.89 7.61371 292.89 9.09684V16.7171C291.436 16.1034 289.464 15.6431 287.492 15.6431C278.981 15.6431 274.207 21.2176 274.207 31.0881C274.207 40.0892 278.41 45.2035 285.78 45.2035ZM287.804 38.1458C284.43 38.1458 282.822 35.7933 282.822 30.9347C282.822 25.4113 284.794 22.7008 288.894 22.7008C290.45 22.7008 291.748 23.1099 292.89 23.8259V36.4581C291.644 37.481 289.62 38.1458 287.804 38.1458Z" fill="#4D5FD5"/>
<path d="M315.929 45.1012C316.863 45.1012 317.953 45.0501 318.835 44.7943C320.34 44.4363 320.911 43.8226 320.911 42.4418V39.8335C320.911 38.555 320.496 38.0435 319.354 38.0435C319.095 38.0435 318.887 38.0947 318.42 38.0947C316.915 38.0947 316.24 37.3275 316.24 35.4864V9.09684C316.24 7.61371 315.67 7 314.165 7H309.857C308.404 7 307.781 7.61371 307.781 9.09684V36.3558C307.781 42.6464 310.065 45.1012 315.929 45.1012Z" fill="#4D5FD5"/>
<path d="M326.065 54C332.656 54 336.963 50.0109 341.582 42.2884C345.993 34.6681 350.612 22.0871 350.612 18.0979C350.612 16.8194 349.937 16.2568 348.692 16.2568H344.696C342.931 16.2568 342.205 16.7682 341.945 18.2002C340.752 24.593 338.676 30.9859 336.496 35.6398C334.317 30.8836 332.085 24.3373 331.047 18.2002C330.788 16.8194 330.061 16.2568 328.245 16.2568H323.989C322.744 16.2568 322.069 16.8194 322.069 18.0979C322.069 22.1893 326.947 35.2818 331.566 42.7486C329.386 45.8683 327.051 46.9935 324.301 46.9935C323.263 46.9935 322.536 46.7889 321.861 46.7889C320.824 46.7889 320.46 47.2492 320.46 48.5277V51.0849C320.46 52.3634 320.875 53.0283 322.484 53.5909C323.47 53.8977 324.56 54 326.065 54Z" fill="#4D5FD5"/>
</svg>
